<mxfile host="app.diagrams.net" modified="2021-05-14T13:52:43.871Z" agent="5.0 (Macintosh)" etag="8TPykO4n8VC7Gg7MXBAE" version="14.6.12" type="github">
  <diagram id="7WOgaztat3HQ-RaENPBO" name="Page-1">
    <mxGraphModel dx="946" dy="290" grid="1" gridSize="10" guides="1" tooltips="1" connect="1" arrows="1" fold="1" page="1" pageScale="1" pageWidth="827" pageHeight="1169" math="0" shadow="0">
      <root>
        <mxCell id="0" />
        <mxCell id="1" parent="0" />
        <mxCell id="x-kxFUkzOhTXJe1JrkZx-1" value="&lt;div&gt;cauko 32&lt;/div&gt;&lt;div&gt;jhdsjdhsdsd&lt;br&gt;&lt;/div&gt;&lt;div&gt;&lt;br&gt;&lt;/div&gt;" style="rounded=0;whiteSpace=wrap;html=1;" parent="1" vertex="1">
          <mxGeometry x="350" y="130" width="120" height="60" as="geometry" />
        </mxCell>
      </root>
    </mxGraphModel>
  </diagram>
</mxfile>
